<?xml version="1.0" encoding="UTF-8"?>
<svg version="1.1" xmlns="http://www.w3.org/2000/svg" width="95" height="96">
<path d="M0 0 C6.39168301 0.15979208 9.68009118 3.74554434 14 8 C14.66 8.7425 15.32 9.485 16 10.25 C21.46913172 15.03549026 28.38342146 15.4629286 35.3125 15.625 C36.99094664 15.6871707 38.66933398 15.75096408 40.34765625 15.81640625 C41.1483252 15.84492676 41.94899414 15.87344727 42.77392578 15.90283203 C45.61041612 16.02664462 48.42560959 16.27653537 51.25 16.5625 C59.84973384 17.42118484 59.84973384 17.42118484 68 15 C70.35297009 12.95726741 72.52177712 10.79060786 74.71875 8.58203125 C77 7 77 7 79.69921875 7.12109375 C82 8 82 8 83.3125 10.25 C84.50336233 15.01344932 84.10494745 18.37941159 82.1875 22.875 C81.8265625 23.74253906 81.465625 24.61007813 81.09375 25.50390625 C80.42865988 27.02173691 79.74572786 28.53212598 79.03125 30.02734375 C77.20204172 33.89747424 76.73602836 35.91639933 78 40 C79.46523758 45.97816932 80.60257499 51.85315987 81 58 C81.08894531 59.2684375 81.17789063 60.536875 81.26953125 61.84375 C81.86515633 73.88861263 81.86515633 73.88861263 78.5625 78.6875 C75.07856707 82.41969419 70.77165183 85.19544804 66 87 C64.68 87 63.36 87 62 87 C62 87.66 62 88.32 62 89 C56.73986899 90.0795785 51.67434037 90.14512472 46.33203125 90.1328125 C45.41540207 90.13376923 44.49877289 90.13472595 43.55436707 90.13571167 C41.6255181 90.1363897 39.6966668 90.13456178 37.76782227 90.13037109 C34.81195997 90.12499902 31.85624834 90.13033832 28.90039062 90.13671875 C27.02343716 90.13605826 25.1464838 90.13477771 23.26953125 90.1328125 C22.3851387 90.13483673 21.50074615 90.13686096 20.58955383 90.13894653 C19.76827499 90.13579437 18.94699615 90.13264221 18.10083008 90.12939453 C17.37946365 90.12859894 16.65809723 90.12780334 15.91487122 90.12698364 C14 90 14 90 11 89 C10.01 89 9.02 89 8 89 C8 88.34 8 87.68 8 87 C5.36 86.67 2.72 86.34 0 86 C0 85.34 0 84.68 0 84 C-0.66 84 -1.32 84 -2 84 C-8.39430006 72.04948775 -9.42679774 60.34738755 -7 47 C-6.36096883 45.32254318 -5.69658363 43.65438613 -5 42 C-4.62406934 40.0075675 -4.28020455 38.0081326 -4 36 C-3.34 36 -2.68 36 -2 36 C-0.3246667 29.77733344 0.04098563 24.50642803 -0.9375 18.125 C-1.74982481 12.68504419 -2.10470744 7.50637954 -2 2 C-1.34 2 -0.68 2 0 2 C0 1.34 0 0.68 0 0 Z M-6 47 C-5 49 -5 49 -5 49 Z " fill="#130D11" transform="translate(8,4)"/>
<path d="M0 0 C0.99 0 1.98 0 3 0 C3.01417969 0.88042969 3.02835938 1.76085938 3.04296875 2.66796875 C3.18587484 9.91395406 3.18587484 9.91395406 6.375 16.1875 C8.23893729 17.47450432 10.11532943 18.74355295 12 20 C12.66666667 22 13.33333333 24 14 26 C14.99 26.66 15.98 27.32 17 28 C17.70052461 30.663063 17.77744818 33.24035737 18 36 C18.9075 35.814375 19.815 35.62875 20.75 35.4375 C28.03943443 34.383427 35.82141977 35.60416495 43 37 C45.25433614 31.43930418 45.59961828 25.9214349 46 20 C46.33 20 46.66 20 47 20 C49.10163387 32.53338018 49.10163387 32.53338018 45.625 37.5 C42.12959613 41.35474445 37.86529328 44.16003454 33 46 C31.68 46 30.36 46 29 46 C29 46.66 29 47.32 29 48 C23.73986899 49.0795785 18.67434037 49.14512472 13.33203125 49.1328125 C12.41540207 49.13376923 11.49877289 49.13472595 10.55436707 49.13571167 C8.6255181 49.1363897 6.6966668 49.13456178 4.76782227 49.13037109 C1.81195997 49.12499902 -1.14375166 49.13033832 -4.09960938 49.13671875 C-5.97656284 49.13605826 -7.8535162 49.13477771 -9.73046875 49.1328125 C-10.6148613 49.13483673 -11.49925385 49.13686096 -12.41044617 49.13894653 C-13.23172501 49.13579437 -14.05300385 49.13264221 -14.89916992 49.12939453 C-15.62053635 49.12859894 -16.34190277 49.12780334 -17.08512878 49.12698364 C-19 49 -19 49 -22 48 C-22.99 48 -23.98 48 -25 48 C-25 47.34 -25 46.68 -25 46 C-28.96 45.505 -28.96 45.505 -33 45 C-33 44.34 -33 43.68 -33 43 C-33.66 43 -34.32 43 -35 43 C-35.33 41.68 -35.66 40.36 -36 39 C-35.01 39.66 -34.02 40.32 -33 41 C-28.49149818 40.65554402 -28.49149818 40.65554402 -25 38 C-21.375 37.875 -21.375 37.875 -18 38 C-16.08792766 34.17585532 -16.12026761 29.59005349 -15.59765625 25.3828125 C-15.07952345 22.45011315 -14.67112552 20.43829702 -13 18 C-10.375 17.25 -10.375 17.25 -8 17 C-8 16.01 -8 15.02 -8 14 C-7.34 14 -6.68 14 -6 14 C-6 13.01 -6 12.02 -6 11 C-5.01 11 -4.02 11 -3 11 C-2.86722656 10.37351562 -2.73445313 9.74703125 -2.59765625 9.1015625 C-2.42105469 8.28429688 -2.24445312 7.46703125 -2.0625 6.625 C-1.88847656 5.81289063 -1.71445312 5.00078125 -1.53515625 4.1640625 C-1 2 -1 2 0 0 Z " fill="#8F8073" transform="translate(41,45)"/>
<path d="M0 0 C1.12610754 3.37832261 0.57930862 4.39505711 -0.4609375 7.640625 C-1.43261552 11.89347664 -1.46411983 16.25071111 -1.65625 20.59765625 C-2.00004005 24.00039638 -2.7958974 26.81009916 -4 30 C-2.02 30 -0.04 30 2 30 C2.33 30.99 2.66 31.98 3 33 C7.29 33.33 11.58 33.66 16 34 C16.33 33.01 16.66 32.02 17 31 C17.66 31 18.32 31 19 31 C19 29.35 19 27.7 19 26 C19.639375 25.87625 20.27875 25.7525 20.9375 25.625 C21.618125 25.41875 22.29875 25.2125 23 25 C23.33 24.34 23.66 23.68 24 23 C23.13375 23.103125 22.2675 23.20625 21.375 23.3125 C16.80527384 22.88937721 15.06142239 21.35298642 12 18 C11.625 14.6875 11.625 14.6875 12 12 C14.31 12.33 16.62 12.66 19 13 C19 13.66 19 14.32 19 15 C19.99 14.67 20.98 14.34 22 14 C24 15.5 24 15.5 26 17 C26.99 16.67 27.98 16.34 29 16 C28.9175 14.9275 28.835 13.855 28.75 12.75 C29 9 29 9 31 6.5625 C31.66 6.046875 32.32 5.53125 33 5 C33.99 5.33 34.98 5.66 36 6 C37.17122859 11.65146223 38.25339288 17.27601207 39 23 C39.66 23 40.32 23 41 23 C41.495 24.485 41.495 24.485 42 26 C42.66 26.33 43.32 26.66 44 27 C44 27.66 44 28.32 44 29 C45.093125 28.896875 46.18625 28.79375 47.3125 28.6875 C48.529375 28.790625 49.74625 28.89375 51 29 C51.433125 29.825 51.86625 30.65 52.3125 31.5 C52.869375 32.325 53.42625 33.15 54 34 C56.60020648 34.33665365 59.01101876 34.24927853 61.625 34.078125 C64 34 64 34 67 35 C66.34 36.32 65.68 37.64 65 39 C63.35 38.67 61.7 38.34 60 38 C60 39.32 60 40.64 60 42 C68.415 43.98 68.415 43.98 77 46 C76.67 46.99 76.34 47.98 76 49 C74.78183594 48.855625 73.56367187 48.71125 72.30859375 48.5625 C70.68491986 48.37479204 69.06122057 48.1873037 67.4375 48 C66.63763672 47.90460938 65.83777344 47.80921875 65.01367188 47.7109375 C60.30547833 47.17285824 55.73852735 46.89823297 51 47 C50.57682292 44.98177083 50.15364583 42.96354167 49.73046875 40.9453125 C49.07691162 38.62953451 49.07691162 38.62953451 46 37 C45.731875 36.05125 45.46375 35.1025 45.1875 34.125 C43.65735963 30.09831482 41.61739946 29.18551217 38 27 C35.57869669 23.36804504 35.78977215 21.61650652 35.875 17.3125 C35.89304688 16.13300781 35.91109375 14.95351563 35.9296875 13.73828125 C35.95289063 12.83464844 35.97609375 11.93101563 36 11 C35.01 11 34.02 11 33 11 C32.01 14.63 31.02 18.26 30 22 C29.01 22 28.02 22 27 22 C27 22.99 27 23.98 27 25 C26.34 25 25.68 25 25 25 C25 25.99 25 26.98 25 28 C23.35 28.33 21.7 28.66 20 29 C18.63292696 33.8270986 18.21768431 38.81972143 17.59765625 43.78515625 C17 47 17 47 15 50 C12.66666667 50 10.33333333 50 8 50 C6.65724831 50.98731742 5.32267727 51.98594743 4 53 C0.42376254 53 -0.93619008 52.05075789 -3.75 49.8125 C-6.23963064 46.7004617 -6.65287747 44.90512849 -7 41 C-7.33 40.34 -7.66 39.68 -8 39 C-8.41217576 29.76241379 -8.6276505 20.61566995 -5 12 C-4.62406934 10.0075675 -4.28020455 8.0081326 -4 6 C-3.34 6 -2.68 6 -2 6 C-1.855625 5.38125 -1.71125 4.7625 -1.5625 4.125 C-1 2 -1 2 0 0 Z M-6 17 C-5 19 -5 19 -5 19 Z " fill="#3A3232" transform="translate(8,34)"/>
<path d="M0 0 C0.99 0 1.98 0 3 0 C3.01417969 0.88042969 3.02835938 1.76085938 3.04296875 2.66796875 C3.18587484 9.91395406 3.18587484 9.91395406 6.375 16.1875 C8.23893729 17.47450432 10.11532943 18.74355295 12 20 C12.66666667 22 13.33333333 24 14 26 C14.99 26.66 15.98 27.32 17 28 C17.40843923 30.71203652 17.13336867 33.2437142 17 36 C6.01505646 36.38393977 6.01505646 36.38393977 2 34 C0 31 0 31 0.1875 28.4375 C1 26 1 26 4 24 C4.72965366 21.43717258 4.72965366 21.43717258 5 19 C4.34 19 3.68 19 3 19 C2.731875 19.639375 2.46375 20.27875 2.1875 20.9375 C1 23 1 23 -2 24 C-4.1875 23.0625 -4.1875 23.0625 -6 22 C-6.33 22.66 -6.66 23.32 -7 24 C-6.34 24 -5.68 24 -5 24 C-5 26.31 -5 28.62 -5 31 C-6.65 31 -8.3 31 -10 31 C-10 31.66 -10 32.32 -10 33 C-10.99 33 -11.98 33 -13 33 C-13.02705729 31.22925083 -13.04642195 29.45838289 -13.0625 27.6875 C-13.07410156 26.70136719 -13.08570312 25.71523437 -13.09765625 24.69921875 C-13 22 -13 22 -12 19 C-10.7934375 18.5359375 -10.7934375 18.5359375 -9.5625 18.0625 C-6.52314752 16.80228068 -6.22944819 15.93176107 -5 13 C-4.34 12.67 -3.68 12.34 -3 12 C-2.34676114 9.71760106 -2.34676114 9.71760106 -1.9375 7.0625 C-1.08609272 2.17218543 -1.08609272 2.17218543 0 0 Z " fill="#AE9F94" transform="translate(41,45)"/>
<path d="M0 0 C0.33 0 0.66 0 1 0 C3.10163387 12.53338018 3.10163387 12.53338018 -0.375 17.5 C-3.87040387 21.35474445 -8.13470672 24.16003454 -13 26 C-14.32 26 -15.64 26 -17 26 C-17 26.66 -17 27.32 -17 28 C-22.26013101 29.0795785 -27.32565963 29.14512472 -32.66796875 29.1328125 C-33.58459793 29.13376923 -34.50122711 29.13472595 -35.44563293 29.13571167 C-37.3744819 29.1363897 -39.3033332 29.13456178 -41.23217773 29.13037109 C-44.18804003 29.12499902 -47.14375166 29.13033832 -50.09960938 29.13671875 C-51.97656284 29.13605826 -53.8535162 29.13477771 -55.73046875 29.1328125 C-56.6148613 29.13483673 -57.49925385 29.13686096 -58.41044617 29.13894653 C-59.23172501 29.13579437 -60.05300385 29.13264221 -60.89916992 29.12939453 C-61.62053635 29.12859894 -62.34190277 29.12780334 -63.08512878 29.12698364 C-65 29 -65 29 -68 28 C-68.99 28 -69.98 28 -71 28 C-71 27.34 -71 26.68 -71 26 C-73.64 25.67 -76.28 25.34 -79 25 C-79 24.34 -79 23.68 -79 23 C-79.66 23 -80.32 23 -81 23 C-81.33 21.68 -81.66 20.36 -82 19 C-80.515 19.99 -80.515 19.99 -79 21 C-76.55757884 21.16707648 -76.55757884 21.16707648 -73.875 21 C-68.57474342 20.88707842 -64.11765416 21.65766448 -59 23 C-59 23.66 -59 24.32 -59 25 C-55.72924117 25.0580476 -52.45861476 25.09361165 -49.1875 25.125 C-48.25873047 25.14175781 -47.32996094 25.15851563 -46.37304688 25.17578125 C-45.48037109 25.18222656 -44.58769531 25.18867187 -43.66796875 25.1953125 C-42.84578857 25.20578613 -42.0236084 25.21625977 -41.17651367 25.22705078 C-38.70578408 25.13996135 -38.70578408 25.13996135 -36 23 C-34.34450469 22.61500109 -32.6777567 22.27206865 -31 22 C-30.505 20.515 -30.505 20.515 -30 19 C-23.77274183 15.9076002 -18.8320986 15.71954521 -12 16.3125 C-10.69482422 16.4043457 -10.69482422 16.4043457 -9.36328125 16.49804688 C-7.24100557 16.64963799 -5.12027415 16.82259803 -3 17 C-1.53572847 12.9881341 -0.68645812 9.38159437 -0.375 5.125 C-0.30023438 4.15820312 -0.22546875 3.19140625 -0.1484375 2.1953125 C-0.07496094 1.10863281 -0.07496094 1.10863281 0 0 Z " fill="#BCAF9C" transform="translate(87,65)"/>
<path d="M0 0 C2.30078125 0.87890625 2.30078125 0.87890625 3.61328125 3.12890625 C4.80414358 7.89235557 4.4057287 11.25831784 2.48828125 15.75390625 C2.12734375 16.62144531 1.76640625 17.48898438 1.39453125 18.3828125 C0.72944113 19.90064316 0.04650911 21.41103223 -0.66796875 22.90625 C-2.49717703 26.77638049 -2.96319039 28.79530558 -1.69921875 32.87890625 C-1.35459144 34.334612 -1.02242816 35.7932958 -0.69921875 37.25390625 C-0.52648437 38.02347656 -0.35375 38.79304688 -0.17578125 39.5859375 C0.46551894 42.6715376 0.90177629 45.75336738 1.30078125 48.87890625 C0.31078125 49.53890625 -0.67921875 50.19890625 -1.69921875 50.87890625 C-1.74820313 50.11964844 -1.7971875 49.36039063 -1.84765625 48.578125 C-1.92242187 47.58425781 -1.9971875 46.59039062 -2.07421875 45.56640625 C-2.14382812 44.58027344 -2.2134375 43.59414063 -2.28515625 42.578125 C-2.53787347 39.66362192 -2.53787347 39.66362192 -4.69921875 36.87890625 C-4.89453125 33.5234375 -4.89453125 33.5234375 -4.82421875 29.69140625 C-4.80617188 28.41910156 -4.788125 27.14679687 -4.76953125 25.8359375 C-4.74632813 24.86011719 -4.723125 23.88429688 -4.69921875 22.87890625 C-5.48296875 22.73453125 -6.26671875 22.59015625 -7.07421875 22.44140625 C-9.69921875 21.87890625 -9.69921875 21.87890625 -11.69921875 20.87890625 C-11.69921875 19.22890625 -11.69921875 17.57890625 -11.69921875 15.87890625 C-10.70921875 15.54890625 -9.71921875 15.21890625 -8.69921875 14.87890625 C-8.36921875 14.21890625 -8.03921875 13.55890625 -7.69921875 12.87890625 C-4.79662064 11.50399135 -2.9378317 10.87890625 0.30078125 10.87890625 C0.30078125 8.23890625 0.30078125 5.59890625 0.30078125 2.87890625 C-5.02623747 4.07748546 -8.0134476 6.66420028 -11.8671875 10.3203125 C-15.67183981 13.55710626 -20.03374555 13.0622259 -24.76171875 13.06640625 C-25.49455078 13.07865234 -26.22738281 13.09089844 -26.98242188 13.10351562 C-28.88948382 13.10876924 -30.79606761 13.00108897 -32.69921875 12.87890625 C-33.35921875 12.21890625 -34.01921875 11.55890625 -34.69921875 10.87890625 C-33.45785156 10.82992188 -32.21648438 10.7809375 -30.9375 10.73046875 C-29.29555181 10.65540826 -27.65362578 10.57986186 -26.01171875 10.50390625 C-25.19509766 10.47296875 -24.37847656 10.44203125 -23.53710938 10.41015625 C-14.90754363 9.99090609 -11.05750991 7.5700757 -4.98046875 1.4609375 C-2.69921875 -0.12109375 -2.69921875 -0.12109375 0 0 Z " fill="#2D252A" transform="translate(87.69921875,11.12109375)"/>
<path d="M0 0 C2.375 0.1875 2.375 0.1875 5 1 C6.125 3.4375 6.125 3.4375 7 6 C7.99 6.66 8.98 7.32 10 8 C10.40843923 10.71203652 10.13336867 13.2437142 10 16 C-0.98494354 16.38393977 -0.98494354 16.38393977 -5 14 C-7 11 -7 11 -6.8125 8.4375 C-6 6 -6 6 -3 4 C-2.01 4 -1.02 4 0 4 C0 2.68 0 1.36 0 0 Z " fill="#C7B7A9" transform="translate(48,65)"/>
<path d="M0 0 C0.33 0.99 0.66 1.98 1 3 C0.01 3.33 -0.98 3.66 -2 4 C-2.433125 5.2375 -2.433125 5.2375 -2.875 6.5 C-3.24625 7.325 -3.6175 8.15 -4 9 C-5.65 9.33 -7.3 9.66 -9 10 C-9.33 14.62 -9.66 19.24 -10 24 C-9.01 24 -8.02 24 -7 24 C-7 23.34 -7 22.68 -7 22 C-5.35 22 -3.7 22 -2 22 C-2 19.69 -2 17.38 -2 15 C-2.66 15 -3.32 15 -4 15 C-3.67 14.01 -3.34 13.02 -3 12 C-2.67 12.66 -2.34 13.32 -2 14 C0.37374861 14.33425735 0.37374861 14.33425735 3 14 C4.70532323 12.05990478 4.70532323 12.05990478 6 10 C6.66 10 7.32 10 8 10 C8.25 12.3125 8.25 12.3125 8 15 C6.125 16.5625 6.125 16.5625 4 18 C3.71125 18.639375 3.4225 19.27875 3.125 19.9375 C1.38271825 23.13168321 -0.81884491 24.31938976 -4 26 C-7.8125 26.3125 -7.8125 26.3125 -11 26 C-12.79061272 24.20938728 -12.17289466 21.60322258 -12.1875 19.1875 C-12.20167969 18.12917969 -12.21585938 17.07085937 -12.23046875 15.98046875 C-12.00390241 13.05046673 -11.66544303 11.39936708 -10 9 C-7.375 8.25 -7.375 8.25 -5 8 C-5 7.01 -5 6.02 -5 5 C-4.34 5 -3.68 5 -3 5 C-3 4.01 -3 3.02 -3 2 C-2.01 2 -1.02 2 0 2 C0 1.34 0 0.68 0 0 Z " fill="#968880" transform="translate(38,54)"/>
<path d="M0 0 C1.11343055 3.34029164 0.63603824 4.58164936 -0.390625 7.828125 C-1.37849773 11.34900474 -1.92634159 14.94430229 -2.53515625 18.546875 C-3 21 -3 21 -4 24 C-4.08178114 25.70016844 -4.10749501 27.40336297 -4.09765625 29.10546875 C-4.09443359 30.08837891 -4.09121094 31.07128906 -4.08789062 32.08398438 C-4.07951172 33.10814453 -4.07113281 34.13230469 -4.0625 35.1875 C-4.05798828 36.22326172 -4.05347656 37.25902344 -4.04882812 38.32617188 C-4.0370401 40.88417266 -4.02058515 43.44205733 -4 46 C-7.10337831 42.89662169 -7.9233386 40.08755244 -8.23046875 35.73046875 C-8.02994182 19.19611182 -8.02994182 19.19611182 -5 12 C-4.62406934 10.0075675 -4.28020455 8.0081326 -4 6 C-3.34 6 -2.68 6 -2 6 C-1.855625 5.38125 -1.71125 4.7625 -1.5625 4.125 C-1 2 -1 2 0 0 Z M-6 17 C-5 19 -5 19 -5 19 Z " fill="#7B777B" transform="translate(8,34)"/>
<path d="M0 0 C0.66 0 1.32 0 2 0 C2.33 0.825 2.66 1.65 3 2.5 C4.7134936 5.23548549 4.7134936 5.23548549 7.3125 5.296875 C9.0845644 5.2659669 10.85645302 5.19392272 12.625 5.078125 C15 5 15 5 18 6 C17.34 7.32 16.68 8.64 16 10 C14.35 9.67 12.7 9.34 11 9 C11 10.32 11 11.64 11 13 C9.35 12.67 7.7 12.34 6 12 C5.67 11.01 5.34 10.02 5 9 C3.02 9 1.04 9 -1 9 C-0.67 6.03 -0.34 3.06 0 0 Z " fill="#403535" transform="translate(57,63)"/>
<path d="M0 0 C1.485 0.99 1.485 0.99 3 2 C5.44242116 2.16707648 5.44242116 2.16707648 8.125 2 C13.42525658 1.88707842 17.88234584 2.65766448 23 4 C23 4.66 23 5.32 23 6 C23.66 6.33 24.32 6.66 25 7 C24.40832031 7.06058594 23.81664063 7.12117188 23.20703125 7.18359375 C19.09021792 7.62012371 15.04455467 8.08671346 11 9 C11 8.34 11 7.68 11 7 C8.36 6.67 5.72 6.34 3 6 C3 5.34 3 4.68 3 4 C2.34 4 1.68 4 1 4 C0.67 2.68 0.34 1.36 0 0 Z " fill="#A7A095" transform="translate(5,84)"/>
<path d="M0 0 C1.32 0 2.64 0 4 0 C4.66 4.95 5.32 9.9 6 15 C6.66 15 7.32 15 8 15 C8.33 15.99 8.66 16.98 9 18 C9.66 18.33 10.32 18.66 11 19 C11 19.66 11 20.32 11 21 C12.65 21 14.3 21 16 21 C15.67 23.97 15.34 26.94 15 30 C14.34 29.67 13.68 29.34 13 29 C12.7525 28.071875 12.505 27.14375 12.25 26.1875 C10.6612892 22.13628746 8.65634706 21.20904302 5 19 C2.57869669 15.36804504 2.78977215 13.61650652 2.875 9.3125 C2.90207031 7.54326172 2.90207031 7.54326172 2.9296875 5.73828125 C2.96449219 4.38283203 2.96449219 4.38283203 3 3 C2.01 3 1.02 3 0 3 C0 2.01 0 1.02 0 0 Z " fill="#534642" transform="translate(41,42)"/>
<path d="M0 0 C6.39168301 0.15979208 9.68009118 3.74554434 14 8 C14.66 8.7425 15.32 9.485 16 10.25 C21.36745297 14.94652135 28.6734807 15.58156303 35.5 16.1875 C36.32242188 16.26935547 37.14484375 16.35121094 37.9921875 16.43554688 C39.99385775 16.63338638 41.99681953 16.81808724 44 17 C44 17.33 44 17.66 44 18 C40.65928628 18.14455011 37.34233634 18.08466714 34 18 C32.75605469 18.00386719 31.51210938 18.00773437 30.23046875 18.01171875 C22.65785744 17.75547476 17.97655319 16.67136878 12.5402832 11.16088867 C11.44390288 9.94395634 10.37472505 8.70186444 9.33666992 7.43481445 C7.7274158 5.43479336 7.7274158 5.43479336 5 3 C1.70122772 2.93935106 1.70122772 2.93935106 -1 4 C-1.33 3.34 -1.66 2.68 -2 2 C-1.34 2 -0.68 2 0 2 C0 1.34 0 0.68 0 0 Z " fill="#787879" transform="translate(8,4)"/>
<path d="M0 0 C1.231394 2.46278801 1.07159196 4.2795055 1 7 C3.91634129 7.2502157 3.91634129 7.2502157 7 7 C7.66 6.01 8.32 5.02 9 4 C10.32 4 11.64 4 13 4 C13.33 3.34 13.66 2.68 14 2 C15 3 15 3 15.09765625 4.84765625 C15.06510417 6.8984375 15.03255208 8.94921875 15 11 C4.01505646 11.38393977 4.01505646 11.38393977 0 9 C-2 6 -2 6 -1.6875 3.375 C-1 1 -1 1 0 0 Z " fill="#B7A99B" transform="translate(43,70)"/>
<path d="M0 0 C0.66 0 1.32 0 2 0 C2.66 2.31 3.32 4.62 4 7 C4.33 6.01 4.66 5.02 5 4 C5.99 4 6.98 4 8 4 C8 7.63 8 11.26 8 15 C7.01 15 6.02 15 5 15 C4.67 16.65 4.34 18.3 4 20 C3.34 20 2.68 20 2 20 C0.88176185 17.76352369 0.80603939 16.35108471 0.68359375 13.8671875 C0.62075195 12.65869141 0.62075195 12.65869141 0.55664062 11.42578125 C0.51732422 10.58402344 0.47800781 9.74226563 0.4375 8.875 C0.39431641 8.02550781 0.35113281 7.17601562 0.30664062 6.30078125 C0.20045764 4.20071777 0.09971503 2.10038052 0 0 Z " fill="#514C4E" transform="translate(7,12)"/>
<path d="M0 0 C0.598125 0.20625 1.19625 0.4125 1.8125 0.625 C0.8225 1.12 0.8225 1.12 -0.1875 1.625 C-0.83963292 3.64963255 -0.83963292 3.64963255 -1.1875 5.625 C0.1325 5.625 1.4525 5.625 2.8125 5.625 C2.8125 6.615 2.8125 7.605 2.8125 8.625 C3.4725 8.625 4.1325 8.625 4.8125 8.625 C4.93625 9.429375 5.06 10.23375 5.1875 11.0625 C5.39375 11.908125 5.6 12.75375 5.8125 13.625 C6.4725 13.955 7.1325 14.285 7.8125 14.625 C7.8125 15.285 7.8125 15.945 7.8125 16.625 C5.8125 18.25 5.8125 18.25 3.8125 19.625 C2.5744986 16.04855152 3.06323929 13.28805234 3.8125 9.625 C2.8225 9.625 1.8325 9.625 0.8125 9.625 C0.8125 11.275 0.8125 12.925 0.8125 14.625 C-0.1775 15.12 -0.1775 15.12 -1.1875 15.625 C-1.5175 12.325 -1.8475 9.025 -2.1875 5.625 C-2.8475 5.625 -3.5075 5.625 -4.1875 5.625 C-4.5175 6.285 -4.8475 6.945 -5.1875 7.625 C-5.375 4.75 -5.375 4.75 -5.1875 1.625 C-2.1875 -0.375 -2.1875 -0.375 0 0 Z " fill="#1E1A1C" transform="translate(11.1875,6.375)"/>
<path d="M0 0 C0.66 0 1.32 0 2 0 C2 0.99 2 1.98 2 3 C3.32 3.33 4.64 3.66 6 4 C6 6.31 6 8.62 6 11 C4.35 11 2.7 11 1 11 C1 11.66 1 12.32 1 13 C0.01 13 -0.98 13 -2 13 C-2 9.7 -2 6.4 -2 3 C-1.34 3 -0.68 3 0 3 C0 2.01 0 1.02 0 0 Z " fill="#C1B1A7" transform="translate(30,65)"/>
<path d="M0 0 C3.95820859 0.56545837 6.6659053 1.80902348 10 4 C9.34 4.66 8.68 5.32 8 6 C8.66 6.66 9.32 7.32 10 8 C6.32589215 9.17571451 2.83070817 9.07366746 -1 9 C-0.67 6.03 -0.34 3.06 0 0 Z " fill="#161014" transform="translate(4,66)"/>
<path d="M0 0 C-1.20381448 2.49361571 -2.45428722 4.68143083 -4 7 C-6.625 7.1875 -6.625 7.1875 -9 7 C-9 7.66 -9 8.32 -9 9 C-16.92 9 -24.84 9 -33 9 C-33 8.67 -33 8.34 -33 8 C-31.73542969 7.95101562 -30.47085938 7.90203125 -29.16796875 7.8515625 C-27.50779053 7.7765262 -25.84763536 7.70097873 -24.1875 7.625 C-23.35412109 7.5940625 -22.52074219 7.563125 -21.66210938 7.53125 C-20.85966797 7.49257812 -20.05722656 7.45390625 -19.23046875 7.4140625 C-18.12288208 7.36693115 -18.12288208 7.36693115 -16.99291992 7.31884766 C-14.68650412 7.09165386 -14.68650412 7.09165386 -12 5 C-10.34450469 4.61500109 -8.6777567 4.27206865 -7 4 C-6.67 3.01 -6.34 2.02 -6 1 C-3 0 -3 0 0 0 Z " fill="#A6988C" transform="translate(63,83)"/>
<path d="M0 0 C0.625 1.8125 0.625 1.8125 1 4 C0.01 5.485 0.01 5.485 -1 7 C-3.33333333 7 -5.66666667 7 -8 7 C-9.34275169 7.98731742 -10.67732273 8.98594743 -12 10 C-14.6875 9.8125 -14.6875 9.8125 -17 9 C-17.33 8.34 -17.66 7.68 -18 7 C-16.96875 6.7525 -15.9375 6.505 -14.875 6.25 C-10.99399857 5.15920937 -8.23990359 3.37066116 -5 1 C-5 1.66 -5 2.32 -5 3 C-4.01 3 -3.02 3 -2 3 C-2 2.34 -2 1.68 -2 1 C-1.34 0.67 -0.68 0.34 0 0 Z " fill="#3E3532" transform="translate(24,77)"/>
<path d="M0 0 C0.99 0.33 1.98 0.66 3 1 C3.21917317 3.70313576 3.32851983 5.43958382 1.9375 7.8125 C-1.05550269 9.646921 -3.57816663 9.31107576 -7 9 C-7.66 8.34 -8.32 7.68 -9 7 C-8.75 4.4375 -8.75 4.4375 -8 2 C-7.34 1.67 -6.68 1.34 -6 1 C-5.9175 1.61875 -5.835 2.2375 -5.75 2.875 C-5.18741541 5.18437567 -5.18741541 5.18437567 -2.9375 6.25 C-2.298125 6.4975 -1.65875 6.745 -1 7 C-1 6.34 -1 5.68 -1 5 C-1.99 4.67 -2.98 4.34 -4 4 C-4 3.34 -4 2.68 -4 2 C-2.68 2.33 -1.36 2.66 0 3 C0 2.01 0 1.02 0 0 Z " fill="#4F4740" transform="translate(60,49)"/>
<path d="M0 0 C0.66 0.33 1.32 0.66 2 1 C0.94751683 2.13437667 -0.11752067 3.25711115 -1.1875 4.375 C-1.77917969 5.00148438 -2.37085937 5.62796875 -2.98046875 6.2734375 C-7.60425869 10.22646487 -12.3176251 10.31374525 -18.1875 10.25 C-18.91130859 10.25773437 -19.63511719 10.26546875 -20.38085938 10.2734375 C-25.74652778 10.25347222 -25.74652778 10.25347222 -28 8 C-26.75863281 7.95101563 -25.51726563 7.90203125 -24.23828125 7.8515625 C-22.59633306 7.77650201 -20.95440703 7.70095561 -19.3125 7.625 C-18.49587891 7.5940625 -17.67925781 7.563125 -16.83789062 7.53125 C-9.23295005 7.1617792 -5.29314178 5.74683964 0 0 Z " fill="#777477" transform="translate(81,14)"/>
<path d="M0 0 C1.9375 0.5625 1.9375 0.5625 4 2 C5.90231072 8.08739429 4.35910881 13.20686587 2 19 C0.79543686 21.17251566 -0.48784635 23.01855728 -2 25 C-3 22 -3 22 -2.2578125 20.125 C-1.88398437 19.42375 -1.51015625 18.7225 -1.125 18 C1.38070819 12.75529354 1.78500256 7.75118154 2 2 C1.01 1.67 0.02 1.34 -1 1 C-0.67 0.67 -0.34 0.34 0 0 Z " fill="#939393" transform="translate(87,11)"/>
<path d="M0 0 C0 1.65 0 3.3 0 5 C-2.64 5 -5.28 5 -8 5 C-8 5.66 -8 6.32 -8 7 C-9.32 6.67 -10.64 6.34 -12 6 C-12 4.68 -12 3.36 -12 2 C-10.56342755 1.66269158 -9.12569907 1.33030409 -7.6875 1 C-6.88699219 0.814375 -6.08648437 0.62875 -5.26171875 0.4375 C-3 0 -3 0 0 0 Z " fill="#281F22" transform="translate(17,75)"/>
<path d="M0 0 C0.66 0 1.32 0 2 0 C2.25 2.3125 2.25 2.3125 2 5 C0.125 6.5625 0.125 6.5625 -2 8 C-3.2516467 10.08334635 -3.2516467 10.08334635 -4 12 C-4.66 12 -5.32 12 -6 12 C-6.66 9.69 -7.32 7.38 -8 5 C-8.66 5 -9.32 5 -10 5 C-9.67 4.01 -9.34 3.02 -9 2 C-8.67 2.66 -8.34 3.32 -8 4 C-5.62625139 4.33425735 -5.62625139 4.33425735 -3 4 C-1.29467677 2.05990478 -1.29467677 2.05990478 0 0 Z " fill="#A17A74" transform="translate(44,64)"/>
<path d="M0 0 C20.295 0.495 20.295 0.495 41 1 C41 1.33 41 1.66 41 2 C27.8 2.33 14.6 2.66 1 3 C0.67 2.01 0.34 1.02 0 0 Z " fill="#D0CBC4" transform="translate(21,91)"/>
<path d="M0 0 C0.33 0 0.66 0 1 0 C2.86446783 11.11900812 2.86446783 11.11900812 0.80078125 15.609375 C-1.23149697 18.30595724 -2.95632807 20.47816403 -6 22 C-6 21.01 -6 20.02 -6 19 C-7.32 19.33 -8.64 19.66 -10 20 C-10 19.67 -10 19.34 -10 19 C-13.3 18.67 -16.6 18.34 -20 18 C-20 17.67 -20 17.34 -20 17 C-14.39 17 -8.78 17 -3 17 C-1.51131714 12.53395142 -0.70440186 9.62682543 -0.375 5.125 C-0.30023438 4.15820312 -0.22546875 3.19140625 -0.1484375 2.1953125 C-0.09945312 1.47085938 -0.05046875 0.74640625 0 0 Z " fill="#9F9492" transform="translate(87,65)"/>
<path d="M0 0 C0.33 0 0.66 0 1 0 C1.36560409 3.24881968 1.71547375 6.49914764 2.0625 9.75 C2.16626953 10.67039062 2.27003906 11.59078125 2.37695312 12.5390625 C2.51713867 13.87324219 2.51713867 13.87324219 2.66015625 15.234375 C2.74918213 16.05131836 2.83820801 16.86826172 2.92993164 17.70996094 C3.00060221 20.01968211 2.67352969 21.8005391 2 24 C-1.82494014 17.30635475 -1.49386847 10.55998661 -1 3 C-0.67 2.01 -0.34 1.02 0 0 Z " fill="#635E61" transform="translate(1,56)"/>
<path d="M0 0 C0.33 0 0.66 0 1 0 C1.33 3.3 1.66 6.6 2 10 C4.31 10 6.62 10 9 10 C8.34 11.32 7.68 12.64 7 14 C5.08364783 14.05423638 3.16685075 14.09289963 1.25 14.125 C-0.35101562 14.15980469 -0.35101562 14.15980469 -1.984375 14.1953125 C-4.92470106 14.00487687 -6.52361878 13.52670104 -9 12 C-6.69 12 -4.38 12 -2 12 C-0.78306124 9.56612247 -0.68040104 7.58161154 -0.4375 4.875 C-0.35371094 3.96492188 -0.26992188 3.05484375 -0.18359375 2.1171875 C-0.12300781 1.41851562 -0.06242187 0.71984375 0 0 Z " fill="#6C615B" transform="translate(25,71)"/>
<path d="M0 0 C8.415 1.98 8.415 1.98 17 4 C16.67 4.99 16.34 5.98 16 7 C15.195625 6.855625 14.39125 6.71125 13.5625 6.5625 C9.38640519 5.90311661 5.20401941 5.43908647 1 5 C0.67 3.35 0.34 1.7 0 0 Z " fill="#3F3432" transform="translate(68,76)"/>
<path d="M0 0 C2.31 0.33 4.62 0.66 7 1 C7 1.66 7 2.32 7 3 C7.99 2.67 8.98 2.34 10 2 C10.99 3.485 10.99 3.485 12 5 C10.68 5 9.36 5 8 5 C8.33 6.32 8.66 7.64 9 9 C7.35 8.67 5.7 8.34 4 8 C4 6.02 4 4.04 4 2 C3.34 2 2.68 2 2 2 C2 3.65 2 5.3 2 7 C1.34 6.67 0.68 6.34 0 6 C0 4.02 0 2.04 0 0 Z " fill="#312A24" transform="translate(20,46)"/>
<path d="M0 0 C0.33 0 0.66 0 1 0 C3.25724823 7.57790477 4.99825613 15.15300635 6 23 C5.01 23.66 4.02 24.32 3 25 C2.92652344 23.86111328 2.92652344 23.86111328 2.8515625 22.69921875 C2.73941406 21.20841797 2.73941406 21.20841797 2.625 19.6875 C2.55539063 18.70136719 2.48578125 17.71523438 2.4140625 16.69921875 C2.16134528 13.78471567 2.16134528 13.78471567 0 11 C-0.1953125 8.30078125 -0.1953125 8.30078125 -0.125 5.3125 C-0.10695313 4.31863281 -0.08890625 3.32476562 -0.0703125 2.30078125 C-0.04710938 1.54152344 -0.02390625 0.78226563 0 0 Z " fill="#8F8A8C" transform="translate(83,37)"/>
<path d="M0 0 C-0.66 1.32 -1.32 2.64 -2 4 C-3.65 3.67 -5.3 3.34 -7 3 C-7 4.32 -7 5.64 -7 7 C-9.4375 6.625 -9.4375 6.625 -12 6 C-12.33 5.34 -12.66 4.68 -13 4 C-12.01 4 -11.02 4 -10 4 C-10.33 3.01 -10.66 2.02 -11 1 C-3.57142857 -1.42857143 -3.57142857 -1.42857143 0 0 Z " fill="#292024" transform="translate(75,69)"/>
<path d="M0 0 C1.32 0.33 2.64 0.66 4 1 C0.27034861 3.03435531 -1.66905042 4 -6 4 C-6 4.66 -6 5.32 -6 6 C-11.34001821 7.33500455 -14.83955235 6.512545 -20 5 C-20 4.67 -20 4.34 -20 4 C-16.7 4 -13.4 4 -10 4 C-9.67 3.34 -9.34 2.68 -9 2 C-6.03 2 -3.06 2 0 2 C0 1.34 0 0.68 0 0 Z " fill="#958E82" transform="translate(76,87)"/>
<path d="M0 0 C0 0.66 0 1.32 0 2 C1.32 2.33 2.64 2.66 4 3 C3.34 3.66 2.68 4.32 2 5 C-0.6015625 4.9765625 -0.6015625 4.9765625 -3.625 4.625 C-4.62789062 4.51414062 -5.63078125 4.40328125 -6.6640625 4.2890625 C-7.43492188 4.19367188 -8.20578125 4.09828125 -9 4 C-9 3.34 -9 2.68 -9 2 C-5.5647952 -0.29013653 -4.014669 -0.17842973 0 0 Z " fill="#988A7B" transform="translate(44,81)"/>
<path d="M0 0 C0.99 0.33 1.98 0.66 3 1 C3 1.66 3 2.32 3 3 C2.01 3 1.02 3 0 3 C-0.12375 4.19625 -0.2475 5.3925 -0.375 6.625 C-0.82325054 10.27596813 -1.70446837 13.54524899 -3 17 C-3.99 17 -4.98 17 -6 17 C-5.67 15.35 -5.34 13.7 -5 12 C-4.34 12 -3.68 12 -3 12 C-3 9.69 -3 7.38 -3 5 C-2.34 5 -1.68 5 -1 5 C-0.67 3.35 -0.34 1.7 0 0 Z " fill="#4B443F" transform="translate(41,39)"/>
<path d="M0 0 C1.670625 0.680625 1.670625 0.680625 3.375 1.375 C10.94823451 3.9481924 19.08219018 4.27398723 27 5 C27 5.33 27 5.66 27 6 C18.20294908 6.38064163 9.68836995 5.20731692 1 4 C0.67 2.68 0.34 1.36 0 0 Z " fill="#6C686D" transform="translate(25,16)"/>
<path d="M0 0 C0.66 0 1.32 0 2 0 C2 1.98 2 3.96 2 6 C3.65 6.33 5.3 6.66 7 7 C6.34 5.35 5.68 3.7 5 2 C6.65 2.33 8.3 2.66 10 3 C10.042721 4.66611905 10.04063832 6.33382885 10 8 C9.67 8.33 9.34 8.66 9 9 C2.4 8.4 2.4 8.4 0 6 C-0.125 2.875 -0.125 2.875 0 0 Z " fill="#655E50" transform="translate(22,48)"/>
<path d="M0 0 C2.35964273 0.40683495 3.85934088 0.89814339 5.8125 2.3125 C7 4 7 4 6.6875 6.1875 C6.460625 6.785625 6.23375 7.38375 6 8 C5.01 8 4.02 8 3 8 C3 7.01 3 6.02 3 5 C1.68 5 0.36 5 -1 5 C-0.67 3.35 -0.34 1.7 0 0 Z " fill="#090808" transform="translate(11,7)"/>
<path d="M0 0 C0.33 0.66 0.66 1.32 1 2 C1.99 2 2.98 2 4 2 C4.05449838 3.72880982 4.09301688 5.45812712 4.125 7.1875 C4.14820312 8.15042969 4.17140625 9.11335938 4.1953125 10.10546875 C3.9913544 13.12812778 3.26874632 15.26769985 2 18 C0.4375 16.1875 0.4375 16.1875 -1 14 C-0.67 13.01 -0.34 12.02 0 11 C0.99 11 1.98 11 3 11 C3 8.36 3 5.72 3 3 C1.02 3 -0.96 3 -3 3 C-2.01 2.01 -1.02 1.02 0 0 Z " fill="#352F34" transform="translate(85,11)"/>
<path d="M0 0 C0.598125 0.20625 1.19625 0.4125 1.8125 0.625 C0.8225 1.12 0.8225 1.12 -0.1875 1.625 C-0.83963292 3.64963255 -0.83963292 3.64963255 -1.1875 5.625 C0.1325 5.625 1.4525 5.625 2.8125 5.625 C2.8125 6.615 2.8125 7.605 2.8125 8.625 C-1.1875 8.625 -1.1875 8.625 -2.9375 7.125 C-3.35 6.63 -3.7625 6.135 -4.1875 5.625 C-4.5175 6.285 -4.8475 6.945 -5.1875 7.625 C-5.375 4.75 -5.375 4.75 -5.1875 1.625 C-2.1875 -0.375 -2.1875 -0.375 0 0 Z " fill="#242323" transform="translate(11.1875,6.375)"/>
<path d="M0 0 C0.33 0 0.66 0 1 0 C1.268125 0.94875 1.53625 1.8975 1.8125 2.875 C2.74986588 6.25267273 2.74986588 6.25267273 6 8 C7.00932746 10.95034182 7.24408113 12.3979332 6.0625 15.3125 C5.5365625 16.1478125 5.5365625 16.1478125 5 17 C4.67 15.68 4.34 14.36 4 13 C3.34 13 2.68 13 2 13 C0.54815522 8.46298506 -0.23509196 4.81938524 0 0 Z " fill="#2C2020" transform="translate(45,44)"/>
<path d="M0 0 C1.231394 2.46278801 1.07159196 4.2795055 1 7 C1.7425 7.103125 2.485 7.20625 3.25 7.3125 C6.17014018 8.04253504 7.73187554 9.06789398 10 11 C1.79662354 10.65604292 1.79662354 10.65604292 -1.125 8.25 C-2.22903854 5.41104376 -1.92972565 3.86665409 -1 1 C-0.67 0.67 -0.34 0.34 0 0 Z " fill="#AB988B" transform="translate(43,70)"/>
<path d="M0 0 C1.32 0 2.64 0 4 0 C4.03738281 0.95261719 4.07476562 1.90523437 4.11328125 2.88671875 C4.17902344 4.14097656 4.24476562 5.39523438 4.3125 6.6875 C4.37050781 7.92886719 4.42851563 9.17023437 4.48828125 10.44921875 C5.01387962 14.09630974 5.91071795 16.01914772 8 19 C8.33 19.66 8.66 20.32 9 21 C5.83884224 19.63016497 5.0072908 19.0109362 3 16 C2.8046875 12.86328125 2.8046875 12.86328125 2.875 9.3125 C2.90207031 7.54326172 2.90207031 7.54326172 2.9296875 5.73828125 C2.96449219 4.38283203 2.96449219 4.38283203 3 3 C2.01 3 1.02 3 0 3 C0 2.01 0 1.02 0 0 Z " fill="#736962" transform="translate(41,42)"/>
<path d="M0 0 C1.45742463 -0.08096803 2.91612807 -0.13917774 4.375 -0.1875 C5.18710938 -0.22230469 5.99921875 -0.25710937 6.8359375 -0.29296875 C7.55007812 -0.19628906 8.26421875 -0.09960938 9 0 C9.66 0.99 10.32 1.98 11 3 C7.32589215 4.17571451 3.83070817 4.07366746 0 4 C0 2.68 0 1.36 0 0 Z " fill="#231C20" transform="translate(3,71)"/>
<path d="M0 0 C0.66 0.33 1.32 0.66 2 1 C2 5.62 2 10.24 2 15 C1.01 15 0.02 15 -1 15 C-1.02685412 12.68756208 -1.04632841 10.3750373 -1.0625 8.0625 C-1.07410156 6.77472656 -1.08570312 5.48695312 -1.09765625 4.16015625 C-1 1 -1 1 0 0 Z " fill="#433D41" transform="translate(87,61)"/>
<path d="M0 0 C0.33 0.66 0.66 1.32 1 2 C0.34 2 -0.32 2 -1 2 C-1 4.31 -1 6.62 -1 9 C-1.99 9.495 -1.99 9.495 -3 10 C-3.72159424 11.64363134 -4.39351421 13.31050386 -5 15 C-5.99 14.67 -6.98 14.34 -8 14 C-7.67 12.35 -7.34 10.7 -7 9 C-5.35 8.67 -3.7 8.34 -2 8 C-2 5.69 -2 3.38 -2 1 C-1.34 0.67 -0.68 0.34 0 0 Z " fill="#27221E" transform="translate(39,42)"/>
<path d="M0 0 C0.99 0 1.98 0 3 0 C3 0.99 3 1.98 3 3 C4.32 3.66 5.64 4.32 7 5 C6.01 5 5.02 5 4 5 C4 5.66 4 6.32 4 7 C5.65 7 7.3 7 9 7 C9 7.33 9 7.66 9 8 C6.69 8.33 4.38 8.66 2 9 C1.34 6.03 0.68 3.06 0 0 Z " fill="#645950" transform="translate(57,72)"/>
<path d="M0 0 C0.66 0 1.32 0 2 0 C3.25664978 2.90600261 4 4.79604584 4 8 C1.03 7.505 1.03 7.505 -2 7 C-2 5.68 -2 4.36 -2 3 C-1.34 3 -0.68 3 0 3 C0 2.01 0 1.02 0 0 Z " fill="#C8BDB0" transform="translate(30,65)"/>
<path d="M0 0 C0.33 0.66 0.66 1.32 1 2 C-1.12472576 2.05386629 -3.24983652 2.09273071 -5.375 2.125 C-7.15003906 2.15980469 -7.15003906 2.15980469 -8.9609375 2.1953125 C-12 2 -12 2 -14 0 C-12.2300132 -0.19532961 -10.45895721 -0.38098882 -8.6875 -0.5625 C-7.70136719 -0.66691406 -6.71523438 -0.77132813 -5.69921875 -0.87890625 C-3 -1 -3 -1 0 0 Z " fill="#7D7B7E" transform="translate(67,22)"/>
<path d="M0 0 C-1 3 -1 3 -3 4 C-4.99960012 4.039992 -7.00047242 4.04346799 -9 4 C-9 3.01 -9 2.02 -9 1 C-2.25 0 -2.25 0 0 0 Z " fill="#1C1217" transform="translate(16,75)"/>
<path d="M0 0 C0.6875 1.8125 0.6875 1.8125 1 4 C-0.125 5.625 -0.125 5.625 -2 7 C-4.69921875 7.29296875 -4.69921875 7.29296875 -7.6875 7.1875 C-8.68136719 7.16042969 -9.67523437 7.13335937 -10.69921875 7.10546875 C-11.45847656 7.07066406 -12.21773437 7.03585938 -13 7 C-13 6.67 -13 6.34 -13 6 C-12.39671875 5.90203125 -11.7934375 5.8040625 -11.171875 5.703125 C-6.29421718 4.79053096 -3.16176612 4.12404277 0 0 Z " fill="#261C20" transform="translate(26,61)"/>
<path d="M0 0 C1.98 0 3.96 0 6 0 C4.875 2 4.875 2 3 4 C-0.1875 4.25 -0.1875 4.25 -3 4 C-3 3.34 -3 2.68 -3 2 C-2.01 2 -1.02 2 0 2 C0 1.34 0 0.68 0 0 Z " fill="#332C2B" transform="translate(9,80)"/>
<path d="M0 0 C0.625 1.8125 0.625 1.8125 1 4 C0.01 5.485 0.01 5.485 -1 7 C-3.97 6.505 -3.97 6.505 -7 6 C-5.68 5.67 -4.36 5.34 -3 5 C-2.814375 4.0409375 -2.814375 4.0409375 -2.625 3.0625 C-2.41875 2.381875 -2.2125 1.70125 -2 1 C-1.34 0.67 -0.68 0.34 0 0 Z " fill="#564B47" transform="translate(24,77)"/>
<path d="M0 0 C1.98 0 3.96 0 6 0 C5.1875 1.9375 5.1875 1.9375 4 4 C3.01 4.33 2.02 4.66 1 5 C0.34 4.67 -0.32 4.34 -1 4 C-0.67 2.68 -0.34 1.36 0 0 Z " fill="#B9968F" transform="translate(38,64)"/>
<path d="M0 0 C0.99 0 1.98 0 3 0 C1.79618552 2.49361571 0.54571278 4.68143083 -1 7 C-3.625 7.1875 -3.625 7.1875 -6 7 C-5.195625 6.21625 -4.39125 5.4325 -3.5625 4.625 C-1.01309583 2.28017144 -1.01309583 2.28017144 0 0 Z " fill="#AD9F8E" transform="translate(60,83)"/>
<path d="M0 0 C0 0.99 0 1.98 0 3 C-1.65 3 -3.3 3 -5 3 C-5.33 3.66 -5.66 4.32 -6 5 C-6.66 4.67 -7.32 4.34 -8 4 C-7.67 3.01 -7.34 2.02 -7 1 C-4.53721199 -0.231394 -2.7204945 -0.07159196 0 0 Z " fill="#B0A691" transform="translate(81,84)"/>
<path d="M0 0 C0.33 0 0.66 0 1 0 C1.66 5.28 2.32 10.56 3 16 C0.4156985 13.4156985 -0.14356969 11.55747974 -1 8 C-0.87675052 5.25893149 -0.46800108 2.71440627 0 0 Z " fill="#A8A3A7" transform="translate(1,64)"/>
<path d="M0 0 C3.125 -0.1875 3.125 -0.1875 6 0 C5.34 1.32 4.68 2.64 4 4 C1.03 3.505 1.03 3.505 -2 3 C-1.34 2.01 -0.68 1.02 0 0 Z " fill="#776A62" transform="translate(28,81)"/>
<path d="M0 0 C1.20628008 2.33214148 2.1654738 4.49642139 3 7 C1.35 6.67 -0.3 6.34 -2 6 C-1.125 1.125 -1.125 1.125 0 0 Z " fill="#706958" transform="translate(53,50)"/>
<path d="M0 0 C2.97 0 5.94 0 9 0 C7.515 1.485 7.515 1.485 6 3 C3.375 2.8125 3.375 2.8125 1 2 C0.67 1.34 0.34 0.68 0 0 Z " fill="#565048" transform="translate(6,84)"/>
<path d="M0 0 C0.99 0 1.98 0 3 0 C3.17700355 4.60209225 3.10814567 6.78370866 1 11 C0.67 7.37 0.34 3.74 0 0 Z " fill="#ABA6AA" transform="translate(1,51)"/>
<path d="M0 0 C-0.33 0.99 -0.66 1.98 -1 3 C-3.64 2.67 -6.28 2.34 -9 2 C-4.13793103 -1.24137931 -4.13793103 -1.24137931 0 0 Z " fill="#372F2C" transform="translate(66,70)"/>
<path d="M0 0 C2.475 0.495 2.475 0.495 5 1 C4.01 1.495 4.01 1.495 3 2 C3.495 2.45375 3.99 2.9075 4.5 3.375 C6 5 6 5 6 7 C3.5625 6.3125 3.5625 6.3125 1 5 C0.1875 2.375 0.1875 2.375 0 0 Z " fill="#302624" transform="translate(53,49)"/>
<path d="M0 0 C0.99 0.33 1.98 0.66 3 1 C3 2.65 3 4.3 3 6 C2.01 6.33 1.02 6.66 0 7 C0 4.69 0 2.38 0 0 Z " fill="#676250" transform="translate(60,49)"/>
<path d="M0 0 C-0.875 3.875 -0.875 3.875 -2 5 C-3.66617115 5.04063832 -5.33388095 5.042721 -7 5 C-3.66666667 0 -3.66666667 0 0 0 Z " fill="#D3C2B4" transform="translate(52,67)"/>
<path d="M0 0 C0.33 0.99 0.66 1.98 1 3 C-0.9375 6.1875 -0.9375 6.1875 -3 9 C-4 6 -4 6 -3.0625 3.8125 C-2.5365625 2.9153125 -2.5365625 2.9153125 -2 2 C-1.34 2 -0.68 2 0 2 C0 1.34 0 0.68 0 0 Z " fill="#878285" transform="translate(88,27)"/>
<path d="M0 0 C0.66 0 1.32 0 2 0 C2 1.65 2 3.3 2 5 C1.01 5.495 1.01 5.495 0 6 C-0.99 5.34 -1.98 4.68 -3 4 C-1.625 2 -1.625 2 0 0 Z " fill="#A78E81" transform="translate(44,64)"/>
<path d="M0 0 C0.66 0 1.32 0 2 0 C2.33 2.31 2.66 4.62 3 7 C2.01 7.66 1.02 8.32 0 9 C0 6.03 0 3.06 0 0 Z " fill="#2E292C" transform="translate(8,32)"/>
<path d="M0 0 C2 1 2 1 2 1 Z " fill="#747474" transform="translate(0,0)"/>
<path d="" fill="#C2BFC2" transform="translate(0,0)"/>
<path d="" fill="#868182" transform="translate(0,0)"/>
</svg>
